<svg
        width="134"
        height="58"
        viewBox="0 0 134 58"
        fill="none"
        xmlns="http://www.w3.org/2000/svg"
      >
        <path
          d="M120.987 58V49.0768H129.86V58H120.987ZM107.675 58V49.0768H116.548V58H107.675ZM94.3633 58V49.0768H103.237V58H94.3633ZM0 57.7031V0.0021447H7.09873H17.4718C21.1172 -0.00139484 24.7076 0.893143 27.9296 2.60761C31.1515 4.32208 33.9069 6.80418 35.9541 9.83685C37.9878 12.8464 39.2531 16.3134 39.6378 19.9312H30.6336C30.4601 18.9586 30.1787 18.0086 29.7945 17.0992C28.7642 14.6712 27.0463 12.6015 24.8546 11.148C22.663 9.69457 20.0944 8.92175 17.469 8.92532H8.87271V57.7027L0 57.7031ZM94.3633 44.6159V35.6942V0.00495914H103.237V35.6942H112.022C113.763 35.6944 115.487 35.348 117.094 34.675C118.701 34.002 120.16 33.0157 121.387 31.7729C123.371 29.7698 124.674 27.186 125.107 24.3924H134C133.794 26.6639 133.24 28.89 132.359 30.9916C130.693 34.9712 127.916 38.3803 124.364 40.8062C120.724 43.2942 116.423 44.6214 112.022 44.6156H103.237L94.3633 44.6159ZM13.3101 44.6159V35.6942H17.6565C20.8188 35.6854 23.8744 34.5424 26.2731 32.4706C28.6719 30.3988 30.2565 27.5342 30.742 24.3924H39.6371C39.4296 26.6637 38.8759 28.8895 37.9954 30.9916C37.4389 32.3171 36.758 33.5861 35.9618 34.7816C34.375 37.1543 32.351 39.1997 29.9988 40.8066C26.3588 43.2943 22.0578 44.6215 17.6565 44.6159H13.3101ZM69.2196 44.5681V35.6139C70.4932 35.473 71.7396 35.1459 72.9194 34.6433C75.6334 33.4919 77.8911 31.468 79.3387 28.8885C80.7862 26.309 81.3418 23.3193 80.9188 20.3882C80.4958 17.4571 79.1184 14.7498 77.0013 12.6903C74.8843 10.6309 72.1472 9.33566 69.2196 9.00729V0.052101C73.128 0.310234 76.8979 1.60887 80.1427 3.81465C82.5051 5.41867 84.5392 7.46343 86.1351 9.83826C89.0161 14.1296 90.322 19.2955 89.8279 24.4491C89.3338 29.6027 87.0707 34.4228 83.4276 38.0819C82.4211 39.0932 81.3212 40.006 80.1427 40.8076C76.8971 43.0115 73.1276 44.3089 69.2196 44.5681ZM57.6261 42.8632C56.3064 42.3033 55.0435 41.6155 53.8563 40.8098C51.495 39.2042 49.4612 37.1588 47.8646 34.7844C45.3903 31.1006 44.0682 26.757 44.0682 22.3119C44.0682 17.8667 45.3903 13.5234 47.8646 9.83967C49.4605 7.46508 51.4944 5.42 53.8563 3.81571C57.1016 1.60998 60.872 0.311715 64.7808 0.0535082V9.00835C61.5256 9.37341 58.5188 10.9322 56.335 13.3866C54.1511 15.8409 52.9438 19.0183 52.9438 22.3115C52.9438 25.6047 54.1511 28.7825 56.335 31.2368C58.5188 33.6911 61.5256 35.2499 64.7808 35.615V44.5702C62.3172 44.4074 59.8984 43.8293 57.6254 42.8601L57.6261 42.8632ZM124.999 19.9319C124.433 16.8381 122.806 14.0421 120.401 12.0307C117.995 10.0194 114.964 8.92033 111.836 8.92497H107.38V3.38672e-05H111.837C116.213 -0.00761429 120.494 1.28027 124.146 3.70313C127.798 6.126 130.66 9.5767 132.374 13.6244C133.225 15.6331 133.774 17.7577 134.004 19.9287L124.999 19.9319Z"
          fill="#AA0002"
        />
        <path
          d="M120.987 57.9982V49.0757H129.86V57.9982H120.987ZM107.675 57.9982V49.0757H116.549V57.9982H107.675ZM94.364 57.9982V49.0757H103.237V57.9982H94.364ZM94.364 44.6148V35.693V0.00170898H103.237V35.6913H112.022C113.763 35.6918 115.487 35.3454 117.094 34.6724C118.701 33.9995 120.16 33.0133 121.387 31.7704C123.372 29.7676 124.675 27.1835 125.107 24.3895H134.001C133.795 26.6611 133.241 28.8871 132.359 30.9887C130.694 34.9687 127.916 38.3776 124.364 40.803C120.724 43.2909 116.423 44.6185 112.022 44.6127H103.237L94.364 44.6148ZM69.2196 44.5648V35.611C70.4934 35.47 71.74 35.1431 72.9201 34.6408C75.6341 33.4892 77.8919 31.4652 79.3394 28.8856C80.7868 26.306 81.3426 23.3164 80.9195 20.3853C80.4964 17.4542 79.1184 14.7469 77.0013 12.6874C74.8843 10.628 72.1472 9.33279 69.2196 9.0044V0.0492026C73.1281 0.307238 76.8981 1.60601 80.1427 3.81211C83.7102 6.23256 86.5024 9.6417 88.1813 13.6261C89.6205 17.0443 90.1874 20.77 89.83 24.4645C89.4726 28.1589 88.2024 31.7048 86.1351 34.7801C84.5387 37.1549 82.5047 39.2004 80.1427 40.8055C76.8974 43.0101 73.1277 44.3079 69.2196 44.5666V44.5648Z"
          fill="#00426B"
        />
      </svg>